<svg width="47" height="47" viewBox="0 0 47 47" fill="none" xmlns="http://www.w3.org/2000/svg">
<g id="coin 1" clip-path="url(#clip0_27_9)">
<path id="Vector" d="M5.875 23.5C5.875 25.8145 6.33088 28.1064 7.21662 30.2448C8.10236 32.3832 9.40061 34.3261 11.0372 35.9628C12.6739 37.5994 14.6168 38.8976 16.7552 39.7834C18.8936 40.6691 21.1855 41.125 23.5 41.125C25.8145 41.125 28.1064 40.6691 30.2448 39.7834C32.3832 38.8976 34.3261 37.5994 35.9628 35.9628C37.5994 34.3261 38.8976 32.3832 39.7834 30.2448C40.6691 28.1064 41.125 25.8145 41.125 23.5C41.125 21.1855 40.6691 18.8936 39.7834 16.7552C38.8976 14.6168 37.5994 12.6739 35.9628 11.0372C34.3261 9.40061 32.3832 8.10236 30.2448 7.21662C28.1064 6.33088 25.8145 5.875 23.5 5.875C21.1855 5.875 18.8936 6.33088 16.7552 7.21662C14.6168 8.10236 12.6739 9.40061 11.0372 11.0372C9.40061 12.6739 8.10236 14.6168 7.21662 16.7552C6.33088 18.8936 5.875 21.1855 5.875 23.5Z" stroke="#400F0A" stroke-width="3.91667" stroke-linecap="round" stroke-linejoin="round"/>
<path id="Vector_2" d="M28.9833 17.6249C28.6286 17.0095 28.1132 16.5022 27.4922 16.1573C26.8713 15.8123 26.1682 15.6427 25.4583 15.6666H21.5417C20.5029 15.6666 19.5067 16.0792 18.7722 16.8138C18.0376 17.5483 17.625 18.5445 17.625 19.5833C17.625 20.622 18.0376 21.6182 18.7722 22.3528C19.5067 23.0873 20.5029 23.4999 21.5417 23.4999H25.4583C26.4971 23.4999 27.4933 23.9126 28.2278 24.6471C28.9624 25.3816 29.375 26.3778 29.375 27.4166C29.375 28.4554 28.9624 29.4516 28.2278 30.1861C27.4933 30.9206 26.4971 31.3333 25.4583 31.3333H21.5417C20.8318 31.3572 20.1287 31.1875 19.5078 30.8426C18.8868 30.4976 18.3714 29.9903 18.0167 29.3749" stroke="#400F0A" stroke-width="3.91667" stroke-linecap="round" stroke-linejoin="round"/>
<path id="Vector_3" d="M23.5 13.7083V33.2916" stroke="#400F0A" stroke-width="3.91667" stroke-linecap="round" stroke-linejoin="round"/>
</g>
<defs>
<clipPath id="clip0_27_9">
<rect width="47" height="47" fill="white"/>
</clipPath>
</defs>
</svg>
