<svg width="40" height="40" viewBox="0 0 40 40" fill="none" xmlns="http://www.w3.org/2000/svg">
<g clip-path="url(#clip0_312_2)">
<path d="M15 31.6666C7.83333 33.9999 7.83333 27.4999 5 26.6666M25 34.9999V29.1666C25 27.4999 25.1667 26.8333 24.1667 25.8333C28.8333 25.3333 33.3333 23.4999 33.3333 15.8333C33.3313 13.8415 32.5542 11.9288 31.1667 10.4999C31.8174 8.76986 31.7575 6.85263 31 5.16658C31 5.16658 29.1667 4.66658 25.1667 7.33325C21.7787 6.4509 18.2213 6.4509 14.8333 7.33325C10.8333 4.66658 9 5.16658 9 5.16658C8.24247 6.85263 8.18256 8.76986 8.83333 10.4999C7.44576 11.9288 6.6687 13.8415 6.66667 15.8333C6.66667 23.4999 11.1667 25.3333 15.8333 25.8333C14.8333 26.8333 14.8333 27.8333 15 29.1666V34.9999" stroke="#FDF5EE" stroke-width="3.33333" stroke-linecap="round" stroke-linejoin="round"/>
</g>
<defs>
<clipPath id="clip0_312_2">
<rect width="40" height="40" fill="white"/>
</clipPath>
</defs>
</svg>
