<svg width="47" height="47" viewBox="0 0 47 47" fill="none" xmlns="http://www.w3.org/2000/svg">
<g id="heart-check 1" clip-path="url(#clip0_27_5)">
<path id="Vector" d="M38.1875 24.6201L32.3125 30.3541M21.5417 37.2083C17.3008 33.0101 13.0577 28.814 8.8125 24.6201C7.84372 23.6774 7.08063 22.5443 6.57128 21.2922C6.06193 20.0401 5.81735 18.6961 5.85294 17.3448C5.88854 15.9935 6.20354 14.6642 6.7781 13.4407C7.35266 12.2171 8.17435 11.1258 9.19141 10.2354C10.2085 9.34496 11.3989 8.67479 12.6877 8.26705C13.9765 7.85931 15.3357 7.72283 16.6798 7.86622C18.024 8.0096 19.3239 8.42974 20.4976 9.10017C21.6714 9.77061 22.6937 10.6768 23.5 11.7617C24.3098 10.6847 25.3333 9.7864 26.5062 9.12308C27.6792 8.45976 28.9765 8.04569 30.3168 7.90679C31.6572 7.76789 33.0118 7.90714 34.2958 8.31583C35.5799 8.72452 36.7658 9.39386 37.7793 10.2819C38.7928 11.17 39.612 12.2577 40.1858 13.477C40.7596 14.6963 41.0755 16.0209 41.1138 17.3679C41.1522 18.7149 40.912 20.0553 40.4085 21.3052C39.905 22.5551 39.1489 23.6876 38.1875 24.6319" stroke="#400F0A" stroke-width="3.64341" stroke-linecap="round" stroke-linejoin="round"/>
<path id="Vector_2" d="M29.375 37.2083L33.2917 41.125L41.125 33.2916" stroke="#400F0A" stroke-width="3.64341" stroke-linecap="round" stroke-linejoin="round"/>
</g>
<defs>
<clipPath id="clip0_27_5">
<rect width="47" height="47" fill="white"/>
</clipPath>
</defs>
</svg>
