<svg width="44" height="44" viewBox="0 0 44 44" fill="none" xmlns="http://www.w3.org/2000/svg">
<g id="brand-instagram 2" clip-path="url(#clip0_402_67)">
<path id="Vector" d="M7.3335 14.6668C7.3335 12.7219 8.10611 10.8566 9.48138 9.48138C10.8566 8.10611 12.7219 7.3335 14.6668 7.3335H29.3335C31.2784 7.3335 33.1437 8.10611 34.5189 9.48138C35.8942 10.8566 36.6668 12.7219 36.6668 14.6668V29.3335C36.6668 31.2784 35.8942 33.1437 34.5189 34.5189C33.1437 35.8942 31.2784 36.6668 29.3335 36.6668H14.6668C12.7219 36.6668 10.8566 35.8942 9.48138 34.5189C8.10611 33.1437 7.3335 31.2784 7.3335 29.3335V14.6668Z" stroke="#FDE9D7" stroke-width="2" stroke-linecap="round" stroke-linejoin="round"/>
<path id="Vector_2" d="M16.5 22C16.5 23.4587 17.0795 24.8576 18.1109 25.8891C19.1424 26.9205 20.5413 27.5 22 27.5C23.4587 27.5 24.8576 26.9205 25.8891 25.8891C26.9205 24.8576 27.5 23.4587 27.5 22C27.5 20.5413 26.9205 19.1424 25.8891 18.1109C24.8576 17.0795 23.4587 16.5 22 16.5C20.5413 16.5 19.1424 17.0795 18.1109 18.1109C17.0795 19.1424 16.5 20.5413 16.5 22Z" stroke="#FDE9D7" stroke-width="2" stroke-linecap="round" stroke-linejoin="round"/>
<path id="Vector_3" d="M30.25 13.75V13.7683" stroke="#FDE9D7" stroke-width="3.66667" stroke-linecap="round" stroke-linejoin="round"/>
</g>
<defs>
<clipPath id="clip0_402_67">
<rect width="44" height="44" fill="white"/>
</clipPath>
</defs>
</svg>
