<svg width="40" height="40" viewBox="0 0 40 40" fill="none" xmlns="http://www.w3.org/2000/svg">
<g clip-path="url(#clip0_312_5)">
<path d="M6.66675 9.99996C6.66675 9.1159 7.01794 8.26806 7.64306 7.64294C8.26818 7.01782 9.11603 6.66663 10.0001 6.66663H30.0001C30.8841 6.66663 31.732 7.01782 32.3571 7.64294C32.9822 8.26806 33.3334 9.1159 33.3334 9.99996V30C33.3334 30.884 32.9822 31.7319 32.3571 32.357C31.732 32.9821 30.8841 33.3333 30.0001 33.3333H10.0001C9.11603 33.3333 8.26818 32.9821 7.64306 32.357C7.01794 31.7319 6.66675 30.884 6.66675 30V9.99996Z" stroke="#FDF5EE" stroke-width="3.33333" stroke-linecap="round" stroke-linejoin="round"/>
<path d="M13.3333 18.3334V26.6667" stroke="#FDF5EE" stroke-width="3.33333" stroke-linecap="round" stroke-linejoin="round"/>
<path d="M13.3333 13.3334V13.3496" stroke="#FDF5EE" stroke-width="3.33333" stroke-linecap="round" stroke-linejoin="round"/>
<path d="M20 26.6667V18.3334" stroke="#FDF5EE" stroke-width="3.33333" stroke-linecap="round" stroke-linejoin="round"/>
<path d="M26.6667 26.6667V21.6667C26.6667 20.7827 26.3155 19.9348 25.6904 19.3097C25.0652 18.6846 24.2174 18.3334 23.3333 18.3334C22.4493 18.3334 21.6014 18.6846 20.9763 19.3097C20.3512 19.9348 20 20.7827 20 21.6667" stroke="#FDF5EE" stroke-width="3.33333" stroke-linecap="round" stroke-linejoin="round"/>
</g>
<defs>
<clipPath id="clip0_312_5">
<rect width="40" height="40" fill="white"/>
</clipPath>
</defs>
</svg>
