<svg width="47" height="47" viewBox="0 0 47 47" fill="none" xmlns="http://www.w3.org/2000/svg">
<g id="notes 1" clip-path="url(#clip0_27_14)">
<path id="Vector" d="M9.79169 9.79167C9.79169 8.7529 10.2043 7.75668 10.9389 7.02216C11.6734 6.28765 12.6696 5.875 13.7084 5.875H33.2917C34.3305 5.875 35.3267 6.28765 36.0612 7.02216C36.7957 7.75668 37.2084 8.7529 37.2084 9.79167V37.2083C37.2084 38.2471 36.7957 39.2433 36.0612 39.9778C35.3267 40.7124 34.3305 41.125 33.2917 41.125H13.7084C12.6696 41.125 11.6734 40.7124 10.9389 39.9778C10.2043 39.2433 9.79169 38.2471 9.79169 37.2083V9.79167Z" stroke="#400F0A" stroke-width="3.91667" stroke-linecap="round" stroke-linejoin="round"/>
<path id="Vector_2" d="M17.625 13.7084H29.375" stroke="#400F0A" stroke-width="3.91667" stroke-linecap="round" stroke-linejoin="round"/>
<path id="Vector_3" d="M17.625 21.5416H29.375" stroke="#400F0A" stroke-width="3.91667" stroke-linecap="round" stroke-linejoin="round"/>
<path id="Vector_4" d="M17.625 29.375H25.4583" stroke="#400F0A" stroke-width="3.91667" stroke-linecap="round" stroke-linejoin="round"/>
</g>
<defs>
<clipPath id="clip0_27_14">
<rect width="47" height="47" fill="white"/>
</clipPath>
</defs>
</svg>
