<svg width="44" height="44" viewBox="0 0 44 44" fill="none" xmlns="http://www.w3.org/2000/svg">
<g id="brand-tiktok 2" clip-path="url(#clip0_402_72)">
<path id="Vector" d="M38.5 14.5145V21.9102C35.1745 21.5802 32.0035 20.3429 29.3333 18.3333V26.5833C29.3328 28.8221 28.7017 31.0154 27.5123 32.912C26.3228 34.8086 24.6232 36.3318 22.608 37.3071C20.5929 38.2824 18.3438 38.6703 16.1184 38.4264C13.893 38.1825 11.7813 37.3167 10.0252 35.9281C8.26917 34.5395 6.93979 32.6843 6.18938 30.5751C5.43898 28.4658 5.2979 26.1879 5.78231 24.0022C6.26673 21.8165 7.35704 19.8114 8.92834 18.2168C10.4996 16.6221 12.4884 15.5023 14.6667 14.9857V22.9167C14.0417 23.3854 13.5469 24.0062 13.2292 24.7199C12.9116 25.4337 12.7817 26.2168 12.8519 26.9949C12.922 27.773 13.1899 28.5203 13.6301 29.1657C14.0703 29.8112 14.6682 30.3334 15.3669 30.6828C16.0657 31.0322 16.8422 31.1972 17.6227 31.162C18.4032 31.1269 19.1617 30.8929 19.8263 30.4821C20.4908 30.0714 21.0394 29.4976 21.4199 28.8153C21.8003 28.1329 22 27.3646 22 26.5833V5.5H29.4855C29.8672 7.75207 30.94 9.82964 32.5552 11.4448C34.1704 13.06 36.2479 14.1328 38.5 14.5145Z" stroke="#FDE9D7" stroke-width="2" stroke-linecap="round" stroke-linejoin="round"/>
</g>
<defs>
<clipPath id="clip0_402_72">
<rect width="44" height="44" fill="white"/>
</clipPath>
</defs>
</svg>
